<svg xmlns="http://www.w3.org/2000/svg" xmlns:xlink="http://www.w3.org/1999/xlink" width="215.433" height="215.433" viewBox="0 0 215.433 215.433"><circle fill="#222221" cx="107.716" cy="107.715" r="99.212"/><path fill="#FFF" d="M30.347 103.446c-.036.655-.194 1.204-.474 1.645-.28.45-.623.79-1.03 1.04l-.354-.51c.37-.26.66-.56.89-.9s.35-.78.38-1.31c.04-.69-.06-1.22-.3-1.59s-.59-.56-1.04-.58c-.23-.01-.42.02-.59.08-.17.07-.32.18-.46.34-.15.16-.27.38-.39.65s-.23.62-.36 1.02c-.14.46-.28.85-.43 1.16-.15.31-.3.56-.48.74-.18.19-.37.31-.58.39-.22.08-.46.1-.74.09-.24-.01-.46-.08-.68-.19-.22-.12-.4-.28-.56-.49-.17-.21-.29-.47-.38-.78-.09-.31-.12-.66-.1-1.05.03-.59.16-1.1.38-1.5.22-.41.5-.75.84-1.04l.44.47c-.32.27-.57.56-.76.89-.19.33-.3.74-.33 1.23-.03.61.07 1.06.31 1.35.23.29.51.44.81.46.19.01.36-.01.51-.06s.27-.15.39-.28.23-.32.34-.55c.1-.24.21-.53.31-.89.16-.51.31-.93.47-1.28s.32-.64.5-.85c.18-.21.39-.35.64-.44.24-.08.53-.11.85-.1.32.02.6.1.84.25s.45.35.61.61c.16.26.28.56.35.9.07.35.1.72.08 1.13zm.533-6.02c-.097.668-.33 1.153-.704 1.456-.373.302-.838.414-1.393.333-.343-.05-.654-.177-.936-.38-.28-.206-.52-.52-.716-.945-.19-.424-.35-.97-.47-1.64-.12-.67-.19-1.496-.2-2.48l-.44-.064c-.55-.08-.99-.002-1.31.235-.31.24-.51.61-.58 1.11-.08.6-.05 1.14.11 1.61.16.47.39.94.69 1.4l-.47.34c-.35-.51-.61-1.04-.79-1.57-.18-.53-.21-1.15-.11-1.85.11-.76.39-1.29.84-1.6.45-.31 1.02-.41 1.69-.31l3.42.5c.44.07.81.1 1.1.11.29.01.53-.01.73-.05l-.1.71c-.16.03-.34.04-.52.05s-.37 0-.59-.03c.33.5.56 1.01.69 1.52.14.52.17 1.05.09 1.61zm-.573-.14c.08-.544.043-1.076-.107-1.592s-.398-1.012-.744-1.486l-2.51-.364c.03.912.095 1.662.198 2.253.103.59.237 1.06.403 1.41s.358.6.578.753c.22.153.457.25.715.287.414.06.746-.02.995-.242.248-.223.405-.56.472-1.017zm-5.77-7.27l.16-.65 1.042.258c-.24-.387-.43-.803-.58-1.248-.15-.445-.15-.94-.02-1.483.1-.407.27-.773.52-1.098.24-.324.55-.585.92-.782.37-.197.81-.317 1.31-.358.5-.04 1.07.016 1.69.17.63.156 1.15.37 1.58.64.42.272.75.583.99.93s.39.726.44 1.13.03.813-.07 1.228c-.13.49-.34.902-.66 1.232-.32.33-.69.625-1.11.888l3.77.934-.17.65-9.86-2.44zm7.45-1.443c.075-.31.09-.622.044-.936s-.17-.607-.37-.878-.48-.52-.85-.75c-.36-.23-.81-.41-1.36-.54-.54-.14-1.02-.19-1.45-.16-.42.03-.79.12-1.1.27-.31.15-.56.35-.76.61-.2.25-.34.53-.41.84-.12.48-.11.93.02 1.35.13.42.36.88.66 1.38l3.71.92c.51-.31.92-.63 1.24-.96s.54-.72.65-1.18zm.643-4.723l.287-.89 1.066.344-.288.892-1.066-.346zm3.056-4.825c-.155.39-.384.726-.686 1.008-.304.28-.66.492-1.073.63-.412.137-.868.195-1.366.17s-1.02-.142-1.56-.358c-.59-.237-1.08-.525-1.47-.865-.38-.34-.66-.705-.85-1.096-.18-.39-.28-.792-.29-1.207 0-.415.07-.812.22-1.194.14-.348.31-.634.52-.86.21-.224.43-.407.68-.547.25-.14.51-.242.8-.304.28-.062.56-.1.85-.11l.08.648c-.57.01-1.06.118-1.46.318-.39.2-.7.567-.91 1.097-.1.258-.15.545-.16.86 0 .314.07.63.22.947.16.317.39.622.72.916s.77.55 1.32.77c.48.19.93.297 1.35.324.42.026.8-.01 1.15-.11.34-.1.64-.263.88-.49.25-.225.44-.493.56-.802.21-.52.24-.99.1-1.41-.14-.418-.42-.86-.84-1.324l.44-.397c.49.52.81 1.05.97 1.59.16.54.12 1.13-.14 1.79zm2.994-6.527c-.205.402-.477.74-.815 1.01s-.722.463-1.15.57c-.427.106-.89.126-1.385.06s-1.005-.233-1.53-.5c-.522-.268-.957-.582-1.304-.946-.347-.364-.603-.75-.768-1.16-.164-.408-.237-.828-.217-1.257.02-.43.14-.85.35-1.26.21-.398.48-.733.82-1.005.34-.273.73-.46 1.15-.568.43-.107.89-.127 1.39-.062.5.065 1.01.23 1.54.5.53.266.96.582 1.3.947.35.364.6.75.77 1.16.17.41.24.83.22 1.265-.02.432-.13.848-.34 1.246zm-.524-.267c.178-.35.266-.7.264-1.05s-.08-.7-.238-1.03c-.156-.33-.384-.64-.684-.92-.3-.28-.66-.53-1.078-.74-.382-.19-.77-.33-1.166-.4s-.775-.08-1.14-.03c-.362.06-.695.19-.997.39-.303.2-.55.49-.74.87-.178.35-.267.7-.265 1.06 0 .36.08.71.235 1.04.157.33.385.64.686.92.3.29.653.53 1.06.74.386.2.776.34 1.175.42s.78.1 1.145.04c.365-.06.7-.19 1.003-.39s.55-.49.74-.86zm-3.536-8.29l.378-.55 1.004.69c-.092-.56-.12-1.09-.084-1.61.035-.51.205-.99.512-1.44.354-.51.726-.83 1.117-.94.392-.11.785-.1 1.184.05-.08-.56-.1-1.12-.06-1.66.05-.54.23-1.03.53-1.47.43-.62.9-.95 1.4-1.01.51-.05 1.04.11 1.6.49l4.4 3.01-.38.56-4.33-2.97c-.46-.31-.87-.45-1.23-.42s-.69.28-1.01.75c-.27.4-.43.85-.46 1.34-.03.49 0 1.05.11 1.67l4.55 3.12-.38.55-4.33-2.97c-.46-.31-.87-.46-1.22-.43-.35.03-.69.28-1.01.75-.27.4-.43.84-.46 1.34s0 1.05.1 1.68l4.55 3.12-.38.55-6.06-4.16zm9.017-16.66l.482-.54 3.75 11.38-.49.55-3.75-11.38zm9.913 4.92c-.47.46-.957.76-1.46.89-.506.14-.993.16-1.462.07l.086-.62c.446.06.87.04 1.268-.06.396-.1.787-.34 1.168-.71.5-.49.785-.94.855-1.37.07-.43-.053-.8-.367-1.13-.156-.16-.317-.27-.484-.33-.166-.06-.355-.08-.566-.06-.213.02-.453.1-.722.22-.27.13-.585.3-.95.51-.414.25-.78.44-1.094.57s-.598.21-.85.22c-.252.02-.48-.02-.688-.11-.207-.09-.406-.24-.6-.43-.166-.17-.29-.37-.367-.59-.08-.23-.106-.47-.08-.74.025-.26.11-.54.257-.82.146-.28.358-.56.64-.84.428-.42.86-.7 1.295-.85.43-.15.87-.21 1.32-.19v.64c-.42-.02-.8.03-1.16.14-.36.12-.72.35-1.07.69-.44.43-.66.82-.69 1.2s.07.67.28.89c.13.14.27.24.42.3.14.06.3.08.48.06s.38-.07.62-.17c.23-.1.51-.25.83-.44.46-.26.86-.47 1.22-.62.35-.15.67-.24.94-.27.27-.03.53.008.77.11s.47.27.69.5c.22.23.38.48.46.758.08.28.09.565.04.86s-.17.6-.35.91c-.18.3-.42.6-.71.88zm4.897-7.93l-3.87 3.12-.31-.38-.848-8.57.71-.58 4.43 5.51 1.36-1.09.39.49-1.37 1.1 1.66 2.07-.52.42-1.67-2.07zm-.394-.49l-3.934-4.89-.03.02.73 7.47 3.22-2.59zm7.005-.73c-.548.36-1.082.56-1.604.6-.52.04-1.003-.03-1.447-.21l.2-.59c.428.15.847.21 1.257.18.41-.02.837-.18 1.28-.48.584-.38.95-.78 1.1-1.19s.1-.8-.147-1.18c-.123-.19-.26-.33-.412-.42-.152-.09-.334-.15-.545-.17-.212-.02-.46.01-.75.08-.287.08-.63.18-1.027.32-.455.17-.85.28-1.183.35-.333.07-.625.09-.875.06s-.468-.11-.654-.24c-.18-.13-.35-.31-.5-.54-.13-.2-.21-.41-.24-.65-.03-.24-.01-.48.06-.74.08-.25.21-.51.41-.76.2-.25.46-.48.79-.7.5-.33.98-.52 1.43-.59.46-.07.9-.05 1.34.06l-.11.63c-.4-.09-.79-.12-1.16-.07-.37.05-.77.2-1.18.48-.51.34-.8.68-.9 1.05-.09.37-.05.68.12.93.11.16.23.29.36.37s.29.14.46.15c.18.02.39 0 .65-.05.25-.05.55-.15.9-.28.5-.17.94-.3 1.31-.38s.7-.11.98-.09c.28.03.52.11.74.26.22.15.41.36.59.63.18.26.28.54.31.82.03.29-.01.57-.12.86-.11.28-.29.56-.52.82-.23.27-.52.51-.86.74zm6.08-3.62c-.37.2-.756.32-1.157.36-.4.04-.8-.01-1.19-.15-.39-.14-.77-.39-1.14-.73-.36-.34-.7-.8-1-1.37-.3-.56-.49-1.1-.57-1.6-.08-.5-.07-.95.03-1.37.1-.41.28-.78.54-1.1.26-.31.58-.57.96-.78.45-.23.92-.34 1.41-.32.49.02.95.1 1.36.25L68.46 29l.59-.314 4.02 7.54c.21.392.392.71.56.95.163.24.33.422.49.55l-.65.342c-.103-.1-.216-.23-.34-.396-.125-.167-.233-.336-.326-.51-.124.44-.305.86-.54 1.265-.232.405-.596.738-1.09 1zm-.264-.52c.438-.23.77-.54.998-.92.227-.38.422-.85.587-1.41l-1.8-3.37c-.57-.17-1.08-.27-1.53-.28-.46-.02-.9.09-1.32.31-.29.16-.53.36-.73.61-.2.25-.33.54-.4.87-.07.33-.06.71.01 1.13.08.42.25.88.51 1.38.26.5.54.89.85 1.19.3.29.61.5.94.63.32.13.64.18.96.16s.61-.11.9-.26zm.92-11.62l.62-.25 2.735 6.62 1.92-5.27.77-.32-1.25 3.29 4.35 3.38-.7.29-3.9-3.01-.9 2.41.91 2.21-.62.26-3.97-9.57z"/><defs><path id="a" d="M0 0h215.433v215.433H0z"/></defs><clipPath id="b"><use xlink:href="#a" overflow="visible"/></clipPath><path clip-path="url(#b)" fill="#C6571E" d="M103.563 93.16c-11.204 11.204 4.29 26.158 4.29 26.158s15.727-14.75 4.32-26.158h-8.61"/><defs><path id="c" d="M103.563 93.16c-11.204 11.204 4.29 26.158 4.29 26.158s15.727-14.752 4.32-26.158h-8.61z"/></defs><clipPath id="d"><use xlink:href="#c" overflow="visible"/></clipPath><path clip-path="url(#d)" fill="#D79326" d="M107.853 119.32s-2.32-2.242-4.517-5.638v-20.29c.075-.078.15-.155.228-.232h4.507v25.946l-.21.213"/><path clip-path="url(#d)" fill="#CF7A23" d="M108.07 119.107V93.16h4.104c.22.22.432.443.63.666v19.34c-1.926 3.055-4.058 5.27-4.734 5.94"/><path clip-path="url(#d)" fill="#DEAA29" d="M98.6 92.916h4.734v26.917H98.6z"/><defs><path id="e" d="M0 0h215.433v215.433H0z"/></defs><clipPath id="f"><use xlink:href="#e" overflow="visible"/></clipPath><path clip-path="url(#f)" fill="#FFF" d="M107.158 20.27c-.247.265-6.096 6.592-9.858 18.273-2.35 7.294-4.124 17.692-2.192 30.568l-7.97 6.38.763 21.14 11.35-11.35c.44 1.22.91 2.46 1.42 3.71l.26.62h1.61l-1.03 3.96h12.73l-1.02-3.95h1.6l.26-.62c.48-1.18.92-2.34 1.34-3.49l11.14 11.14.77-21.14-7.71-6.16c1.99-12.97.21-23.44-2.14-30.77-3.75-11.68-9.58-18.01-9.83-18.27l-.72-.78-.73.78zm-17.43 71.71l-.56-15.564 6.31-5.046c.674 3.744 1.668 7.688 3.045 11.814l-8.795 8.795zm21.924-.415h-7.573l.51-1.963h6.55l.51 1.963zm14.613-15.15l-.56 15.564-8.58-8.58c1.39-4.13 2.397-8.08 3.085-11.83l6.055 4.84zM113.458 87.61h-11.193c-8.515-21.32-6.4-38.04-3.1-48.353.087-.267.177-.523.265-.786h16.887c.088.26.18.52.264.79 3.29 10.31 5.4 27.04-3.12 48.36m2.16-51.13h-15.48c2.76-7.33 6.26-12.13 7.75-13.98 1.49 1.85 4.98 6.66 7.73 13.98"/><path clip-path="url(#f)" fill="#FFF" d="M99.79 50.847c0 2.157.84 4.186 2.364 5.71 1.526 1.526 3.555 2.366 5.712 2.366s4.186-.84 5.71-2.365c1.525-1.525 2.366-3.554 2.366-5.71 0-4.455-3.623-8.078-8.076-8.078-4.454 0-8.077 3.624-8.077 8.077m14.16 0c0 1.624-.64 3.152-1.79 4.3s-2.68 1.783-4.3 1.783-3.16-.633-4.31-1.782c-1.15-1.15-1.78-2.677-1.78-4.3 0-1.68.68-3.2 1.78-4.3 1.1-1.102 2.62-1.784 4.3-1.785 3.35 0 6.08 2.73 6.08 6.084m-7.23 72.913l-12.57-5.17-2-.822-17.78-7.317 17.99-5.23v-2.08l-20.78 6.06L57.9 98.51l25.217-8.153V88.3l-29.65 9.28 15.774 12.31-22.05 6.46 23.2 11.95v28.48l37.33 16.9 37.33-16.9V128.3l23.2-11.95-22.05-6.46 15.77-12.31-29.65-9.285v2.058l25.22 8.16-13.69 10.69-21.26-6.34v2.08l18.48 5.517-17.77 7.317-1.99.82-12.56 5.174h-1.99zm-54.25-6.88l18.71-5.483.15-.045 33.8 13.915-20.35 8.19-32.31-16.577zm19.91 38.61v-26.166l12.31 6.34 22.02-8.975v44.34l-34.33-15.54zm70.66 0l-34.33 15.547V126.69l22.02 8.974 12.31-6.34v26.167zm-12.4-22.033l-20.36-8.19 33.8-13.914.15.045 18.71 5.484-32.32 16.575z"/><path clip-path="url(#f)" fill-rule="evenodd" clip-rule="evenodd" fill="#1269B0" d="M177.918 80.115c0-1.558 1.166-2.736 2.665-2.736 1.487 0 2.66 1.17 2.66 2.73 0 1.58-1.173 2.74-2.66 2.74-1.5 0-2.665-1.17-2.665-2.75m2.665 3.29c1.788 0 3.314-1.4 3.314-3.3 0-1.89-1.526-3.28-3.314-3.28-1.8 0-3.33 1.39-3.33 3.28s1.53 3.29 3.33 3.29m-.69-3.04h.66l.995 1.64h.645l-1.08-1.67c.554-.07.983-.36.983-1.04 0-.75-.442-1.08-1.335-1.08h-1.43V82h.57v-1.64zm0-.49V78.7h.78c.395 0 .82.08.82.556 0 .584-.434.613-.912.613h-.68z"/><defs><path id="g" d="M142.673 58.24v22.522h23.01L188.2 58.24z"/></defs><clipPath id="h"><use xlink:href="#g" overflow="visible"/></clipPath><linearGradient id="i" gradientUnits="userSpaceOnUse" x1="-.008" y1="215.424" x2=".992" y2="215.424" gradientTransform="matrix(0 22.523 22.523 0 -4686.575 58.433)"><stop offset="0" stop-color="#4BAFE8"/><stop offset=".213" stop-color="#3899D7"/><stop offset=".446" stop-color="#2984C7"/><stop offset=".662" stop-color="#1D75BB"/><stop offset=".854" stop-color="#166CB3"/><stop offset="1" stop-color="#1269B0"/></linearGradient><path clip-path="url(#h)" fill="url(#i)" d="M142.673 58.24H188.2v22.522h-45.527z"/><defs><path id="j" d="M0 0h215.433v215.433H0z"/></defs><clipPath id="k"><use xlink:href="#j" overflow="visible"/></clipPath><path clip-path="url(#k)" fill-rule="evenodd" clip-rule="evenodd" fill="#FFF" d="M169.69 62.475l-4.48-.003v10.656l-3.914-10.656h-3.882l-3.344 8.912c-.355-2.246-2.68-3.022-4.51-3.605-1.207-.39-2.487-.96-2.476-1.59.01-.52.687-1 2.03-.93.9.05 1.695.12 3.278.88l1.558-2.71c-1.444-.74-3.44-1.2-5.077-1.2h-.01c-1.907 0-3.496.62-4.482 1.63-.68.71-1.05 1.61-1.07 2.61-.02 1.37.48 2.35 1.54 3.13.9.65 2.04 1.08 3.05 1.39 1.25.38 2.26.72 2.25 1.43-.01.26-.1.5-.29.7-.31.32-.78.44-1.44.45-1.27.03-2.21-.17-3.71-1.06l-1.38 2.75c1.5.85 3.27 1.34 5.07 1.34h.23c1.57-.03 2.84-.47 3.86-1.29l.17-.14-.45 1.2h4.07l.68-2.08c.72.24 1.53.38 2.4.38.84 0 1.64-.13 2.34-.36l.66 2.06H169v-4.3h1.45c3.5 0 5.57-1.79 5.57-4.77 0-3.33-2.01-4.86-6.296-4.86m-10.36 9.12c-.527 0-1.02-.09-1.44-.25l1.42-4.49h.026l1.397 4.5c-.42.15-.895.24-1.404.24M169.97 69h-.99v-3.6h.99c1.316 0 2.37.435 2.37 1.78 0 1.392-1.05 1.83-2.368 1.83"/><path fill="#FFF" d="M72.097 188.623c-.513-.227-.953-.49-1.32-.793-.366-.302-.67-.628-.912-.98-.24-.35-.423-.723-.544-1.118-.12-.395-.19-.803-.22-1.223l1.99-.25c.04.63.21 1.19.54 1.67.33.47.76.83 1.31 1.07.49.21.93.3 1.31.26.39-.05.66-.25.83-.62.16-.36.12-.71-.12-1.04-.24-.34-.64-.73-1.19-1.18-.37-.31-.73-.61-1.09-.93-.35-.31-.64-.64-.88-1s-.38-.74-.44-1.15c-.06-.41.02-.87.24-1.36.2-.44.45-.8.78-1.08s.69-.47 1.09-.58c.41-.11.85-.14 1.32-.08.48.06.97.2 1.48.42.49.21.9.46 1.25.74.34.28.63.57.86.89.23.31.41.64.53.98.12.33.22.67.27 1l-1.93.46c-.07-.52-.26-.99-.57-1.42s-.7-.75-1.17-.95c-.44-.2-.82-.26-1.13-.19-.31.07-.53.25-.65.53-.17.37-.12.73.14 1.06.26.33.66.72 1.2 1.16.37.3.73.6 1.08.92s.64.65.87 1.01c.23.36.37.75.43 1.16.05.41-.02.86-.24 1.35-.17.38-.41.71-.71.99s-.67.48-1.09.61c-.42.13-.91.16-1.46.11-.55-.06-1.15-.23-1.81-.52zm4.96 2.027l6.578-8.855 2.076.644.43 11.02-2.2-.69-.05-2.44-3.37-1.05-1.44 1.97-2-.62zm4.476-2.766l2.325.72-.092-3.72-.026-.01-2.207 3.01zm6.563 5.94l1.866-10.194 3.705.678c.538.1 1.05.238 1.536.418s.9.426 1.24.74c.34.315.588.704.74 1.168.15.464.164 1.03.04 1.703-.124.686-.347 1.22-.668 1.604-.32.39-.703.66-1.148.83-.446.17-.926.25-1.442.25-.516 0-1.026-.05-1.533-.14l-1.446-.26-.663 3.63-2.227-.4zm3.206-4.95l1.533.28c.695.126 1.21.09 1.546-.114.34-.203.55-.554.64-1.05.09-.477.02-.868-.22-1.178-.24-.31-.71-.53-1.41-.658l-1.53-.28-.54 2.998zm14.556 7.22c-.56-.013-1.068-.088-1.523-.226s-.862-.32-1.22-.552c-.356-.23-.667-.506-.932-.823-.264-.317-.49-.665-.68-1.044l1.745-.99c.275.57.654 1.02 1.138 1.33.483.31 1.023.47 1.62.49.533.01.97-.08 1.308-.27.34-.19.513-.49.52-.89.01-.39-.163-.7-.516-.92s-.87-.43-1.55-.63c-.46-.14-.915-.28-1.36-.43s-.846-.35-1.2-.58c-.352-.24-.634-.53-.848-.89-.213-.36-.314-.81-.303-1.35.01-.49.11-.92.3-1.3s.453-.7.784-.96c.34-.26.73-.46 1.19-.59s.97-.19 1.53-.18c.54.01 1.02.08 1.44.2.42.13.8.29 1.13.49.33.2.63.44.87.7.25.26.46.53.64.82l-1.6 1.17c-.26-.46-.62-.82-1.08-1.1-.45-.28-.93-.42-1.44-.43-.48-.01-.85.08-1.11.26-.26.18-.39.43-.4.74-.01.41.17.72.54.92s.89.41 1.56.61c.46.13.91.28 1.35.44.45.15.84.35 1.2.6.35.24.63.55.84.91.21.36.31.8.3 1.34-.01.42-.1.81-.27 1.19-.17.37-.43.7-.77.98s-.77.51-1.3.67c-.52.16-1.15.24-1.87.22zm5.492-.18l5.094-10.85 2.302-.202-5.095 10.85-2.3.202zm13.215-1.64l-.372-1.995-4.94.92-.302-1.63 3.42-7.43 2.47-.46 1.2 6.43 1.72-.32.33 1.76-1.72.32.37 1.99-2.16.4zm-3.327-3.267l2.627-.49-.7-3.756-.026.01-1.91 4.24zm9.226 2.08l-3.146-9.875 2.17-.69 1.22 3.83 3.882-1.237-1.22-3.83 2.175-.693 3.146 9.873-2.17.693-1.34-4.213-3.88 1.236 1.35 4.22-2.17.69zm10.183-3.365l-1.07-10.98 1.972-.916 7.71 7.886-2.1.976-1.67-1.77-3.2 1.487.25 2.432-1.91.885zm1.463-5.055l2.206-1.027-2.566-2.695-.025.01.385 3.712zm8.927.088l-5.53-8.764 1.925-1.21 7.2 3.28.02-.01-3.527-5.59 1.78-1.12 5.532 8.77-1.78 1.13-7.38-3.23-.022.02 3.558 5.64-1.776 1.12zm9.033-5.89l-3.788-10.36 1.678-1.382 9.444 5.7-1.783 1.47-2.06-1.297-2.72 2.243.85 2.29-1.62 1.33zm.15-5.26l1.877-1.547-3.16-1.967-.02.02 1.302 3.5zm14.18-7.842c-.44.504-.935.898-1.48 1.186-.544.28-1.12.44-1.73.46-.61.02-1.25-.1-1.915-.36-.665-.27-1.343-.71-2.032-1.31-.672-.59-1.182-1.2-1.528-1.82s-.55-1.25-.606-1.86c-.06-.62.02-1.21.23-1.79.21-.58.53-1.11.96-1.6s.86-.87 1.29-1.12c.43-.25.87-.41 1.32-.47.44-.06.88-.04 1.31.07.43.1.86.27 1.28.49l-.94 2.03c-.28-.13-.55-.24-.81-.32-.26-.08-.51-.11-.75-.11s-.47.06-.68.16c-.22.1-.43.27-.64.5-.52.6-.69 1.25-.48 1.97.2.71.7 1.42 1.51 2.13.82.72 1.61 1.13 2.37 1.23.75.1 1.39-.14 1.9-.73.4-.46.57-.94.51-1.43-.06-.49-.3-1.04-.71-1.65l1.77-1.3c.3.44.54.89.73 1.34.18.45.27.91.28 1.38 0 .47-.09.94-.28 1.42s-.5.96-.93 1.45zm4.053-5.245l-8.51-5.914 1.3-1.87 6.993 4.86 2.606-3.75 1.516 1.054-3.905 5.62zm7.11-10.788c-.298.55-.684 1.032-1.16 1.447-.474.414-1.013.714-1.616.9-.604.187-1.267.242-1.988.166-.73-.078-1.49-.334-2.3-.77-.8-.43-1.43-.926-1.89-1.49-.47-.564-.79-1.15-.96-1.758-.18-.608-.22-1.225-.14-1.848s.28-1.21.57-1.76.68-1.027 1.15-1.437c.47-.408 1.01-.706 1.61-.895.6-.188 1.27-.24 2-.16.72.082 1.48.336 2.27.766.81.44 1.44.94 1.9 1.5.46.56.78 1.15.95 1.76s.22 1.23.14 1.84c-.08.62-.28 1.21-.57 1.76zm-1.62-.873c.19-.354.29-.71.302-1.068.01-.36-.066-.72-.23-1.06-.165-.35-.41-.68-.74-.99-.328-.32-.73-.61-1.21-.86-.956-.52-1.818-.72-2.583-.6-.767.11-1.34.53-1.72 1.23-.387.71-.418 1.42-.094 2.12.323.7.964 1.31 1.922 1.82.477.25.938.44 1.383.54.444.1.854.13 1.23.07s.714-.18 1.01-.39c.296-.21.54-.49.73-.84zm6.317-9.525c-.256.67-.568 1.215-.937 1.64s-.78.733-1.242.926c-.45.19-.95.272-1.48.244-.53-.03-1.1-.158-1.69-.388l-5.97-2.294.82-2.132 5.92 2.275c.71.27 1.3.338 1.79.2.49-.14.85-.53 1.1-1.167.24-.626.23-1.15-.04-1.572-.27-.423-.75-.77-1.46-1.04l-5.92-2.275.81-2.1 5.96 2.29c.6.23 1.11.51 1.53.85.42.33.74.72.95 1.17.22.44.32.95.31 1.51-.01.56-.14 1.18-.4 1.85zm2.135-6.52l-10.063-2.472.758-3.087c.19-.77.45-1.463.785-2.078s.757-1.113 1.27-1.497 1.118-.634 1.82-.75c.7-.116 1.51-.06 2.427.165.942.23 1.704.564 2.284 1 .58.437 1.01.947 1.29 1.53.277.586.426 1.226.443 1.92.01.693-.07 1.42-.26 2.183l-.76 3.087zm-1.252-2.637l.254-1.035c.134-.545.184-1.025.15-1.44-.034-.418-.152-.78-.354-1.085-.202-.305-.496-.563-.884-.773-.39-.21-.87-.385-1.44-.524-1.07-.263-1.93-.226-2.56.114-.63.342-1.08 1.06-1.35 2.158l-.25 1.01 6.42 1.575zm4.702-16.02c-.04.56-.14 1.063-.302 1.51-.16.447-.365.844-.614 1.19-.25.345-.54.642-.87.89-.34.246-.69.454-1.08.623l-.9-1.793c.59-.245 1.05-.602 1.39-1.066.34-.47.53-1 .57-1.6.04-.53-.03-.97-.2-1.32-.18-.35-.46-.54-.86-.57-.39-.03-.71.13-.94.47s-.47.84-.71 1.51c-.16.45-.33.9-.5 1.34-.18.43-.39.82-.64 1.16-.26.34-.57.61-.93.8-.37.19-.82.27-1.36.23-.48-.04-.91-.16-1.28-.37s-.68-.49-.92-.83c-.25-.35-.42-.75-.52-1.22-.11-.47-.14-.98-.1-1.54.04-.53.13-1.01.28-1.42.14-.42.33-.78.55-1.11s.46-.6.74-.83c.27-.23.56-.43.85-.6l1.08 1.66c-.47.24-.85.58-1.15 1.02s-.47.91-.51 1.41c-.04.48.03.86.2 1.13.17.27.41.41.72.44.41.03.73-.14.95-.49s.46-.86.69-1.53c.15-.45.32-.89.5-1.33.18-.44.4-.82.66-1.16s.58-.61.95-.8c.37-.19.82-.27 1.35-.23.42.03.81.14 1.17.33.37.19.68.46.95.82.26.35.46.8.6 1.33.13.53.17 1.15.12 1.87zm.137-6.58l-10.352.49-.15-3.174c-.037-.79.017-1.52.162-2.21.145-.68.408-1.28.79-1.79.382-.51.894-.92 1.532-1.23.64-.31 1.432-.49 2.373-.53.97-.04 1.795.06 2.476.32.68.25 1.237.62 1.67 1.1.435.48.76 1.06.972 1.72.214.66.34 1.38.377 2.17l.15 3.18zm-1.95-2.173l-.05-1.065c-.027-.56-.116-1.035-.268-1.424-.15-.39-.366-.702-.646-.938s-.637-.4-1.066-.49c-.432-.092-.94-.123-1.527-.095-1.103.052-1.906.33-2.414.837-.5.505-.73 1.32-.68 2.45l.05 1.038 6.6-.313zm1.32-8.952l-10.21 1.766-.39-2.243 4.224-.73-4.815-2.69-.45-2.62 4.59 2.77 5.56-4.902.44 2.54-4.05 3.54 1.46.9 3.27-.56.39 2.24z"/></svg>